<svg xmlns="http://www.w3.org/2000/svg" xmlns:xlink="http://www.w3.org/1999/xlink" preserveAspectRatio="xMidYMid" width="60" height="59.94" viewBox="0 0 60 59.94">
  <defs>
    <style>
      .cls-1 {
        fill: #fff;
        fill-rule: evenodd;
      }
    </style>
  </defs>
  <path d="M59.000,59.932 L1.000,59.932 C0.447,59.932 0.000,59.485 0.000,58.932 C0.000,58.380 0.447,57.934 1.000,57.934 L4.000,57.934 L4.000,43.947 C4.000,41.192 6.243,38.951 9.000,38.951 L11.035,38.951 C11.024,38.893 11.000,38.839 11.000,38.777 L11.000,28.917 C11.000,26.163 13.243,23.921 16.000,23.921 L29.000,23.921 L29.000,13.881 C26.721,13.454 25.000,11.599 25.000,9.380 C25.000,9.357 25.001,9.335 25.002,9.312 C25.020,7.648 25.652,6.407 26.265,5.207 C26.878,4.005 27.512,2.764 27.661,0.906 C27.690,0.551 27.904,0.239 28.225,0.085 C28.545,-0.069 28.923,-0.042 29.218,0.157 C29.451,0.315 34.893,4.046 34.990,9.238 C34.996,9.285 35.000,9.333 35.000,9.380 C35.000,11.599 33.279,13.454 31.000,13.881 L31.000,23.921 L44.000,23.921 C46.757,23.921 49.000,26.163 49.000,28.917 L49.000,38.777 C49.000,38.839 48.976,38.893 48.965,38.951 L51.000,38.951 C53.757,38.951 56.000,41.192 56.000,43.947 L56.000,57.934 L59.000,57.934 C59.553,57.934 60.000,58.380 60.000,58.932 C60.000,59.485 59.553,59.932 59.000,59.932 ZM32.997,9.490 C32.993,9.455 32.991,9.418 32.991,9.380 C32.991,6.558 30.820,4.137 29.370,2.837 C29.044,4.159 28.522,5.181 28.047,6.114 C27.463,7.258 27.002,8.161 27.002,9.380 C27.002,9.398 27.002,9.416 27.001,9.433 C27.033,10.840 28.366,11.976 30.000,11.976 C31.611,11.976 32.931,10.871 32.997,9.490 ZM47.000,38.777 L47.000,28.917 C47.000,27.265 45.654,25.920 44.000,25.920 L16.000,25.920 C14.346,25.920 13.000,27.265 13.000,28.917 L13.000,38.777 C13.000,38.839 12.976,38.893 12.965,38.951 L47.035,38.951 C47.024,38.893 47.000,38.839 47.000,38.777 ZM54.000,43.947 C54.000,42.294 52.654,40.949 51.000,40.949 L9.000,40.949 C7.346,40.949 6.000,42.294 6.000,43.947 L6.000,57.934 L54.000,57.934 L54.000,43.947 Z" class="cls-1"/>
</svg>
