<svg xmlns="http://www.w3.org/2000/svg" xmlns:xlink="http://www.w3.org/1999/xlink" preserveAspectRatio="xMidYMid" width="52" height="60" viewBox="0 0 52 60">
  <defs>
    <style>
      .cls-1 {
        fill: #fff;
        fill-rule: evenodd;
      }
    </style>
  </defs>
  <path d="M51.000,60.000 L1.000,60.000 C0.447,60.000 0.000,59.552 0.000,58.999 L0.000,9.001 C0.000,8.449 0.447,8.002 1.000,8.002 L15.000,8.002 L15.000,0.999 C15.000,0.447 15.447,-0.000 16.000,-0.000 C16.553,-0.000 17.000,0.447 17.000,0.999 L17.000,8.002 L35.000,8.002 L35.000,0.999 C35.000,0.447 35.447,-0.000 36.000,-0.000 C36.553,-0.000 37.000,0.447 37.000,0.999 L37.000,8.002 L51.000,8.002 C51.553,8.002 52.000,8.449 52.000,9.001 L52.000,58.999 C52.000,59.552 51.553,60.000 51.000,60.000 ZM50.000,10.001 L37.000,10.001 L37.000,12.999 C37.000,13.552 36.553,13.999 36.000,13.999 C35.447,13.999 35.000,13.552 35.000,12.999 L35.000,10.001 L17.000,10.001 L17.000,12.999 C17.000,13.552 16.553,13.999 16.000,13.999 C15.447,13.999 15.000,13.552 15.000,12.999 L15.000,10.001 L2.000,10.001 L2.000,18.999 L50.000,18.999 L50.000,10.001 ZM50.000,20.999 L2.000,20.999 L2.000,57.999 L50.000,57.999 L50.000,20.999 ZM18.293,28.110 C18.580,27.825 19.010,27.739 19.383,27.894 C19.757,28.049 20.000,28.414 20.000,28.818 L20.000,49.926 C20.000,50.478 19.553,50.927 19.000,50.927 C18.447,50.927 18.000,50.478 18.000,49.926 L18.000,31.232 L15.485,33.747 C15.095,34.137 14.462,34.137 14.071,33.747 C13.681,33.356 13.681,32.723 14.071,32.333 L18.293,28.110 ZM26.000,27.999 C26.001,27.999 26.002,27.999 26.003,27.999 L36.003,28.028 C36.556,28.030 37.002,28.479 37.000,29.032 C36.998,29.583 36.551,30.029 36.000,30.029 C35.999,30.029 35.998,30.029 35.997,30.029 L27.000,30.002 L27.000,36.000 L31.500,36.000 C35.570,36.000 38.000,38.616 38.000,43.000 C38.000,49.897 33.957,50.927 31.547,50.927 C27.295,50.927 25.000,47.872 25.000,45.000 C25.000,44.447 25.447,43.999 26.000,43.999 C26.553,43.999 27.000,44.447 27.000,45.000 C27.000,46.517 28.234,48.926 31.547,48.926 C33.459,48.926 36.000,48.312 36.000,43.000 C36.000,39.728 34.444,37.999 31.500,37.999 L26.000,37.999 C25.447,37.999 25.000,37.551 25.000,36.999 L25.000,28.999 C25.000,28.734 25.106,28.479 25.294,28.292 C25.481,28.104 25.735,27.999 26.000,27.999 Z" class="cls-1"/>
</svg>
