<svg xmlns="http://www.w3.org/2000/svg" xmlns:xlink="http://www.w3.org/1999/xlink" preserveAspectRatio="xMidYMid" width="60.25" height="56" viewBox="0 0 60.25 56">
  <defs>
    <style>
      .cls-1 {
        fill: #fff;
        fill-rule: evenodd;
      }
    </style>
  </defs>
  <path d="M57.200,47.640 L41.754,55.881 C41.611,55.957 41.451,55.998 41.287,55.999 C41.265,55.999 41.212,55.999 41.131,55.999 C39.955,55.999 32.850,55.937 28.368,54.477 C26.830,53.975 24.990,53.307 23.211,52.661 C19.746,51.403 15.819,49.976 14.583,49.976 C12.961,49.976 6.328,51.408 3.909,51.959 C3.645,52.019 3.373,51.971 3.146,51.828 C2.919,51.685 2.761,51.458 2.704,51.197 L0.012,38.903 C-0.101,38.390 0.204,37.878 0.710,37.730 C17.482,32.831 26.039,34.135 26.394,34.192 C26.448,34.200 26.502,34.214 26.554,34.232 L41.677,39.320 C41.693,39.326 41.704,39.338 41.719,39.344 C41.734,39.350 41.750,39.348 41.765,39.355 C43.247,40.014 44.240,41.349 44.575,42.855 L53.446,38.382 C53.458,38.376 53.471,38.377 53.483,38.372 C53.494,38.367 53.501,38.357 53.512,38.352 C54.707,37.853 56.024,37.856 57.217,38.360 C58.448,38.880 59.398,39.864 59.893,41.130 C60.890,43.682 59.682,46.604 57.200,47.640 ZM58.021,41.856 C57.724,41.097 57.160,40.510 56.433,40.202 C55.748,39.912 54.992,39.910 54.306,40.191 L44.572,45.099 C44.508,45.377 44.433,45.653 44.320,45.924 C43.799,47.179 42.828,48.141 41.588,48.633 C41.015,48.860 40.418,48.973 39.822,48.974 C39.179,48.974 38.538,48.843 37.930,48.581 L23.777,43.948 C23.250,43.776 22.964,43.212 23.136,42.687 C23.310,42.162 23.879,41.878 24.404,42.048 L38.604,46.695 C38.636,46.706 38.667,46.718 38.699,46.732 C39.385,47.037 40.147,47.053 40.844,46.776 C41.576,46.484 42.152,45.910 42.465,45.158 C43.101,43.629 42.428,41.858 40.967,41.193 L25.999,36.156 C25.156,36.047 17.071,35.165 2.174,39.390 L4.450,49.787 C6.894,49.244 12.797,47.976 14.583,47.976 C16.067,47.976 19.093,49.036 23.899,50.782 C25.663,51.422 27.487,52.084 28.993,52.576 C33.022,53.889 39.675,53.991 41.029,53.998 L56.337,45.836 C57.910,45.174 58.627,43.407 58.021,41.856 ZM43.551,31.999 C37.804,31.999 33.130,27.345 33.130,21.624 C33.130,21.311 33.150,21.003 33.177,20.698 C32.870,20.725 32.562,20.750 32.253,20.750 C26.506,20.750 21.832,16.094 21.832,10.374 C21.832,4.654 26.506,-0.001 32.253,-0.001 C37.998,-0.001 42.672,4.654 42.672,10.374 C42.672,10.682 42.647,10.990 42.619,11.296 C42.927,11.269 43.236,11.249 43.551,11.249 C49.296,11.249 53.969,15.903 53.969,21.624 C53.969,27.345 49.296,31.999 43.551,31.999 ZM40.663,10.374 C40.663,5.756 36.890,1.999 32.253,1.999 C27.615,1.999 23.841,5.756 23.841,10.374 C23.841,14.993 27.615,18.749 32.253,18.749 C32.699,18.749 33.140,18.702 33.576,18.633 C34.582,15.315 37.213,12.695 40.546,11.693 C40.616,11.258 40.663,10.818 40.663,10.374 ZM43.551,13.249 C38.913,13.249 35.139,17.006 35.139,21.624 C35.139,26.242 38.913,30.000 43.551,30.000 C48.188,30.000 51.961,26.242 51.961,21.624 C51.961,17.006 48.188,13.249 43.551,13.249 Z" class="cls-1"/>
</svg>
