<svg xmlns="http://www.w3.org/2000/svg" xmlns:xlink="http://www.w3.org/1999/xlink" preserveAspectRatio="xMidYMid" width="58" height="60" viewBox="0 0 58 60">
  <defs>
    <style>
      .cls-1 {
        fill: #fff;
        fill-rule: evenodd;
      }
    </style>
  </defs>
  <path d="M57.000,54.059 L53.004,54.059 L53.004,59.001 C53.004,59.555 52.557,60.005 52.005,60.005 L26.021,60.005 C25.469,60.005 25.022,59.555 25.022,59.001 L25.022,52.974 C25.022,52.419 25.448,52.059 26.000,52.059 L30.019,52.059 L30.019,48.059 L27.000,48.059 C26.448,48.059 26.021,47.502 26.021,46.947 L26.021,40.920 C26.021,40.366 26.448,40.059 27.000,40.059 L28.020,40.059 L28.020,34.893 C28.020,34.338 28.448,34.059 29.000,34.059 L55.000,34.059 C55.552,34.059 56.002,34.338 56.002,34.893 L56.002,40.920 C56.002,41.475 55.552,42.060 55.000,42.060 L54.003,42.060 L54.003,46.059 L57.000,46.059 C57.552,46.059 58.001,46.392 58.001,46.947 L58.001,52.974 C58.001,53.529 57.552,54.059 57.000,54.059 ZM27.000,54.059 L27.000,58.059 L51.000,58.059 L51.000,54.059 L31.000,54.059 L27.000,54.059 ZM28.572,41.924 L28.020,41.924 L28.000,46.059 L31.000,46.059 L52.000,46.059 L52.005,42.060 L29.000,42.060 C28.843,42.060 28.702,42.004 28.572,41.924 ZM54.000,36.059 L30.000,36.059 L30.000,40.059 L53.000,40.059 L54.000,40.059 L54.000,36.059 ZM56.000,48.059 L53.000,48.059 L32.000,48.059 L32.000,52.059 L52.000,52.059 L56.000,52.059 L56.000,48.059 ZM46.547,29.875 C46.093,30.189 45.471,30.074 45.158,29.616 C40.824,23.281 35.326,18.221 34.000,17.060 L18.000,17.060 C15.844,18.942 1.998,31.502 1.998,41.882 C1.998,53.027 7.048,57.997 18.372,57.997 L20.026,57.997 C20.578,57.997 21.025,58.446 21.025,59.001 C21.025,59.555 20.578,60.005 20.026,60.005 L18.372,60.005 C6.010,60.005 -0.000,54.077 -0.000,41.882 C-0.000,31.037 13.335,18.579 16.637,15.660 C14.940,13.344 10.407,6.757 11.073,2.757 C11.245,1.718 11.762,0.883 12.567,0.341 C14.139,-0.719 15.674,0.953 16.910,2.293 C17.527,2.963 18.559,4.084 19.016,4.084 C19.383,4.084 19.911,3.433 20.422,2.802 C21.382,1.622 22.694,0.003 24.991,0.003 C27.001,0.003 28.286,1.106 29.319,1.991 C29.961,2.542 30.515,3.017 31.008,3.017 C32.363,3.017 33.042,2.449 33.902,1.729 C34.820,0.960 35.964,0.003 37.982,0.003 C39.252,0.003 40.260,0.719 40.748,1.966 C41.923,4.963 40.014,11.046 35.452,15.762 C37.464,17.564 42.726,22.515 46.805,28.478 C47.117,28.935 47.002,29.560 46.547,29.875 ZM38.889,2.702 C38.652,2.096 38.313,2.012 37.982,2.012 C36.687,2.012 36.023,2.568 35.180,3.273 C34.247,4.053 33.086,5.025 31.008,5.025 C29.778,5.025 28.886,4.260 28.022,3.519 C27.118,2.744 26.264,2.012 24.991,2.012 C23.644,2.012 22.831,3.013 21.971,4.073 C21.165,5.066 20.331,6.093 19.016,6.093 C17.686,6.093 16.546,4.855 15.443,3.659 C14.929,3.101 13.972,2.062 13.608,2.028 C13.329,2.245 13.127,2.588 13.044,3.088 C12.521,6.228 16.844,12.595 18.686,15.059 L33.318,15.059 C38.012,10.654 39.754,4.909 38.889,2.702 Z" class="cls-1"/>
</svg>
