<svg xmlns="http://www.w3.org/2000/svg" xmlns:xlink="http://www.w3.org/1999/xlink" preserveAspectRatio="xMidYMid" width="59.97" height="60" viewBox="0 0 59.97 60">
  <defs>
    <style>
      .cls-1 {
        fill: #fff;
        fill-rule: evenodd;
      }
    </style>
  </defs>
  <path d="M58.971,40.000 L55.223,40.000 C54.007,43.505 51.525,46.703 48.101,49.126 L50.497,55.934 C50.677,56.447 50.415,57.010 49.906,57.202 L42.642,59.936 C42.526,59.980 42.407,60.000 42.290,60.000 C41.897,60.000 41.526,59.767 41.366,59.384 L38.890,53.423 C37.598,54.070 35.190,55.000 31.917,55.000 C28.668,55.000 26.263,54.084 24.960,53.438 L22.723,59.354 C22.572,59.754 22.191,60.000 21.788,60.000 C21.671,60.000 21.552,59.980 21.436,59.936 L14.172,57.202 C13.663,57.010 13.401,56.447 13.581,55.934 L15.925,49.273 C11.002,45.869 8.108,41.085 7.791,35.946 C2.019,35.411 0.160,29.993 -0.001,27.055 C-0.031,26.503 0.391,26.031 0.942,26.002 C1.488,25.954 1.964,26.393 1.994,26.946 C2.011,27.216 2.444,33.296 7.798,33.936 C8.518,23.954 19.044,16.000 31.917,16.000 C35.506,16.000 38.218,16.309 40.591,16.997 C45.804,11.299 52.775,11.972 53.080,12.006 C53.475,12.048 53.808,12.321 53.927,12.701 C54.046,13.081 53.929,13.495 53.628,13.756 C53.599,13.782 50.472,16.607 49.974,22.454 C52.554,24.732 54.321,27.267 55.259,30.000 L58.971,30.000 C59.523,30.000 59.970,30.448 59.970,31.000 L59.970,39.000 C59.970,39.553 59.523,40.000 58.971,40.000 ZM57.971,32.000 L54.512,32.000 C54.023,32.000 53.636,31.644 53.548,31.180 C52.742,28.439 50.959,25.890 48.244,23.603 C47.923,23.332 47.806,22.890 47.949,22.495 C47.955,22.478 47.962,22.462 47.969,22.446 C48.275,18.456 49.661,15.687 50.790,14.049 C48.467,14.296 44.643,15.266 41.680,18.787 C41.418,19.099 40.995,19.224 40.605,19.093 C38.290,18.337 35.610,18.000 31.917,18.000 C19.682,18.000 9.727,25.634 9.727,35.018 C9.727,40.041 12.621,44.784 17.666,48.030 C18.056,48.280 18.221,48.765 18.068,49.203 L15.792,55.675 L21.207,57.713 L23.499,51.646 C23.515,51.606 23.546,51.578 23.566,51.541 C23.586,51.503 23.591,51.461 23.617,51.425 C23.632,51.403 23.656,51.392 23.673,51.372 C23.714,51.322 23.760,51.282 23.810,51.241 C23.864,51.197 23.916,51.156 23.977,51.124 C24.026,51.098 24.076,51.082 24.129,51.065 C24.198,51.042 24.265,51.023 24.338,51.016 C24.393,51.010 24.447,51.015 24.503,51.018 C24.575,51.023 24.645,51.032 24.715,51.053 C24.739,51.060 24.764,51.055 24.788,51.064 C24.828,51.080 24.855,51.110 24.892,51.130 C24.929,51.149 24.970,51.155 25.006,51.179 C25.032,51.197 27.690,53.000 31.917,53.000 C36.182,53.000 38.780,51.202 38.806,51.182 C38.837,51.160 38.874,51.156 38.907,51.138 C38.940,51.120 38.963,51.091 38.998,51.077 C39.027,51.065 39.057,51.069 39.086,51.060 C39.153,51.038 39.218,51.027 39.286,51.020 C39.348,51.015 39.406,51.011 39.466,51.017 C39.533,51.022 39.595,51.037 39.659,51.055 C39.719,51.073 39.775,51.092 39.830,51.120 C39.886,51.149 39.936,51.184 39.987,51.224 C40.041,51.266 40.090,51.310 40.135,51.363 C40.154,51.386 40.181,51.399 40.199,51.424 C40.220,51.455 40.225,51.491 40.242,51.523 C40.261,51.556 40.290,51.580 40.305,51.616 L42.842,57.723 L48.286,55.675 L46.066,49.364 C46.030,49.318 45.999,49.269 45.972,49.215 C45.746,48.760 45.854,48.224 46.278,47.947 C49.921,45.574 52.505,42.297 53.552,38.719 C53.558,38.699 53.572,38.686 53.579,38.667 C53.603,38.601 53.639,38.544 53.675,38.485 C53.708,38.433 53.735,38.380 53.776,38.335 C53.820,38.287 53.873,38.251 53.926,38.211 C53.976,38.174 54.022,38.136 54.078,38.108 C54.134,38.081 54.194,38.068 54.255,38.052 C54.322,38.034 54.386,38.016 54.456,38.011 C54.475,38.010 54.492,38.000 54.512,38.000 L57.971,38.000 L57.971,32.000 ZM41.978,27.000 L45.976,27.000 L45.976,31.000 L41.978,31.000 L41.978,27.000 ZM33.609,14.023 C33.065,13.927 32.703,13.408 32.800,12.864 C32.925,12.161 32.982,11.569 32.982,11.000 C32.982,6.037 28.947,2.000 23.986,2.000 C19.026,2.000 14.991,6.037 14.991,11.000 C14.991,12.786 15.669,14.812 16.806,16.423 C17.125,16.874 17.018,17.498 16.567,17.816 C16.391,17.940 16.190,18.000 15.991,18.000 C15.678,18.000 15.368,17.853 15.174,17.577 C13.787,15.613 12.992,13.216 12.992,11.000 C12.992,4.935 17.924,-0.000 23.986,-0.000 C30.049,-0.000 34.982,4.935 34.982,11.000 C34.982,11.680 34.911,12.404 34.768,13.214 C34.671,13.757 34.155,14.121 33.609,14.023 Z" class="cls-1"/>
</svg>
