<svg xmlns="http://www.w3.org/2000/svg" xmlns:xlink="http://www.w3.org/1999/xlink" width="150" height="132" viewBox="0 0 41 36">
  <defs>
    <style>
      .cls-1 {
        fill: #0560bb;
        fill-rule: evenodd;
        filter: url(#filter);
      }
    </style>
    <filter id="filter" x="0" y="0.875" width="410" height="350.31" filterUnits="userSpaceOnUse">
      <feFlood result="flood" flood-color="#fff"/>
      <feComposite result="composite" operator="in" in2="SourceGraphic"/>
      <feBlend result="blend" in2="SourceGraphic"/>
    </filter>
  </defs>
  <path id="Shape_64.svg" data-name="Shape 64.svg" class="cls-1" d="M32.183,18.97V35.9h2.193V17.383l-0.3-.3ZM27.068,35.9h2.193V21.876l-2.193,2.178V35.9Zm-5.115,0h2.193V26.959l-2.193,2.179V35.9Zm-5.115,0h2.191V28.41l-2.191-2.179V35.9Zm-5.115,0h2.193V26.779l-2.193,2.178V35.9ZM6.6,35.9H8.8v-4.04L6.6,34.038V35.9ZM5.846,31.254a1,1,0,0,1-.687-0.273L0.311,26.4A0.986,0.986,0,0,1,.3,24.979L14.772,10.7a1,1,0,0,1,.7-0.288h0a1,1,0,0,1,.706.293l4.555,4.562,7.833-7.724L23.6,2.576A0.987,0.987,0,0,1,23.39,1.5,1,1,0,0,1,24.312.886h0L40,0.944a1,1,0,0,1,.994,1L40.94,17.664a0.993,0.993,0,0,1-.62.914,1,1,0,0,1-1.087-.22l-4.689-4.693L21.981,26.055a1,1,0,0,1-.7.288h0a1,1,0,0,1-.7-0.293l-4.483-4.489L6.549,30.966A1,1,0,0,1,5.846,31.254ZM2.431,25.668l3.4,3.213,9.558-9.426a1,1,0,0,1,.7-0.288h0a1,1,0,0,1,.7.293l4.483,4.489,12.563-12.39a1,1,0,0,1,1.411.006l3.694,3.7L39,2.924,26.718,2.878l3.973,3.977a0.987,0.987,0,0,1-.006,1.4l-9.25,9.121a1,1,0,0,1-.7.288,0.9,0.9,0,0,1-.709-0.293l-4.555-4.562Z"/>
</svg>
